<mxfile host="Electron" modified="2023-10-21T18:23:43.369Z" agent="Mozilla/5.0 (X11; Linux x86_64) AppleWebKit/537.36 (KHTML, like Gecko) draw.io/22.0.3 Chrome/114.0.5735.289 Electron/25.8.4 Safari/537.36" etag="91QkoZuyP3Q2EJCoxM7I" version="22.0.3" type="device">
  <diagram name="Page-1" id="g2m9_N19VamV3ti7hEVS">
    <mxGraphModel dx="584" dy="846" grid="1" gridSize="10" guides="1" tooltips="1" connect="1" arrows="1" fold="1" page="1" pageScale="1" pageWidth="850" pageHeight="1100" math="0" shadow="0">
      <root>
        <mxCell id="0" />
        <mxCell id="1" parent="0" />
        <mxCell id="jMytRt4kFC8EYQrURmys-1" value="" style="rounded=0;whiteSpace=wrap;html=1;fontSize=20;" parent="1" vertex="1">
          <mxGeometry x="850" width="1280" height="720" as="geometry" />
        </mxCell>
        <mxCell id="jMytRt4kFC8EYQrURmys-2" value="MENÜSÁV" style="rounded=1;whiteSpace=wrap;html=1;fontSize=20;" parent="1" vertex="1">
          <mxGeometry x="1090" y="30" width="1000" height="60" as="geometry" />
        </mxCell>
        <mxCell id="jMytRt4kFC8EYQrURmys-3" value="LÁBJEGYZET" style="rounded=1;whiteSpace=wrap;html=1;fontSize=20;" parent="1" vertex="1">
          <mxGeometry x="890" y="620" width="1200" height="60" as="geometry" />
        </mxCell>
        <mxCell id="jMytRt4kFC8EYQrURmys-4" value="LOGÓ ÉS CÉGNÉV" style="rounded=1;whiteSpace=wrap;html=1;fontSize=20;" parent="1" vertex="1">
          <mxGeometry x="890" y="30" width="200" height="60" as="geometry" />
        </mxCell>
        <mxCell id="jMytRt4kFC8EYQrURmys-5" value="" style="rounded=0;whiteSpace=wrap;html=1;fontSize=20;" parent="1" vertex="1">
          <mxGeometry x="890" y="90" width="1200" height="530" as="geometry" />
        </mxCell>
        <mxCell id="jMytRt4kFC8EYQrURmys-10" value="Regisztráció" style="rounded=1;whiteSpace=wrap;html=1;fontSize=20;" parent="1" vertex="1">
          <mxGeometry x="1360" y="520" width="260" height="60" as="geometry" />
        </mxCell>
        <mxCell id="AU0-NAwEuRZtbaZKRoiJ-2" value="" style="rounded=0;whiteSpace=wrap;html=1;" vertex="1" parent="1">
          <mxGeometry x="1225" y="110" width="530" height="400" as="geometry" />
        </mxCell>
        <mxCell id="jMytRt4kFC8EYQrURmys-11" value="FELHASZNÁLÓ NÉV" style="rounded=0;whiteSpace=wrap;html=1;fontSize=16;" parent="1" vertex="1">
          <mxGeometry x="1250" y="130" width="480" height="40" as="geometry" />
        </mxCell>
        <mxCell id="jMytRt4kFC8EYQrURmys-13" value="JELSZÓ" style="rounded=0;whiteSpace=wrap;html=1;fontSize=16;" parent="1" vertex="1">
          <mxGeometry x="1250" y="180" width="480" height="40" as="geometry" />
        </mxCell>
        <mxCell id="jMytRt4kFC8EYQrURmys-14" value="JELSZÓ ÚJRA" style="rounded=0;whiteSpace=wrap;html=1;fontSize=16;" parent="1" vertex="1">
          <mxGeometry x="1250" y="230" width="480" height="40" as="geometry" />
        </mxCell>
        <mxCell id="jMytRt4kFC8EYQrURmys-15" value="LAKCÍM" style="rounded=0;whiteSpace=wrap;html=1;fontSize=16;" parent="1" vertex="1">
          <mxGeometry x="1250" y="430" width="480" height="40" as="geometry" />
        </mxCell>
        <mxCell id="jMytRt4kFC8EYQrURmys-16" value="EMAIL" style="rounded=0;whiteSpace=wrap;html=1;fontSize=16;" parent="1" vertex="1">
          <mxGeometry x="1250" y="280" width="480" height="40" as="geometry" />
        </mxCell>
        <mxCell id="jMytRt4kFC8EYQrURmys-17" value="VEZETÉKNÉV" style="rounded=0;whiteSpace=wrap;html=1;fontSize=16;" parent="1" vertex="1">
          <mxGeometry x="1250" y="330" width="480" height="40" as="geometry" />
        </mxCell>
        <mxCell id="jMytRt4kFC8EYQrURmys-18" value="KERESZTNÉV" style="rounded=0;whiteSpace=wrap;html=1;fontSize=16;" parent="1" vertex="1">
          <mxGeometry x="1250" y="380" width="480" height="40" as="geometry" />
        </mxCell>
      </root>
    </mxGraphModel>
  </diagram>
</mxfile>
